<svg width="48px" height="48px" viewBox="0 0 48 48" xmlns="http://www.w3.org/2000/svg"><g stroke="none" stroke-width="1" fill="none" fill-rule="evenodd"><g><rect fill-opacity="0.01" fill="transparent" x="0" y="0" width="48" height="48"></rect><path d="M45.3333333,21.3333333 L2.66666667,21.3333333 C1.19390733,21.3333333 0,22.5272408 0,24 C0,25.4727592 1.19390733,26.6666667 2.66666667,26.6666667 L45.3333333,26.6666667 C46.8060925,26.6666667 48,25.4727592 48,24 C48,22.5272408 46.8060925,21.3333333 45.3333333,21.3333333 Z M25.8856181,4.55228475 C26.9270163,3.51088664 26.9270163,1.82244669 25.8856181,0.781048587 C24.84422,-0.26034952 23.15578,-0.26034952 22.1143819,0.781048587 L0.781048587,22.1143819 C-0.26034952,23.15578 -0.26034952,24.84422 0.781048587,25.8856181 L22.1143819,47.2189515 C23.15578,48.2603496 24.84422,48.2603496 25.8856181,47.2189515 C26.9270163,46.1775533 26.9270163,44.4891133 25.8856181,43.4477152 L6.43790283,24 L25.8856181,4.55228475 Z" fill="currentColor" fill-rule="nonzero"></path></g></g></svg>
