<svg width="48px" height="48px" viewBox="0 0 48 48" xmlns="http://www.w3.org/2000/svg"><g stroke="none" stroke-width="1" fill="none" fill-rule="evenodd"><g><rect fill-opacity="0.01" fill="transparent" x="0" y="0" width="48" height="48"></rect><g transform="translate(0.000000, 3.000000)" fill="currentColor" fill-rule="nonzero"><g><path d="M7.96761134,21.4736842 C7.96761134,20.6866397 8.01619433,19.8995951 8.10364372,19.1125506 C8.11336032,19.0736842 8.14251012,18.7919028 8.12307692,18.9765182 C8.09392713,19.1611336 8.13279352,18.8793522 8.14251012,18.8404858 C8.17165992,18.6461538 8.20080972,18.4518219 8.23967611,18.2477733 C8.30769231,17.8591093 8.3951417,17.4704453 8.48259109,17.091498 C8.65748988,16.3724696 8.87125506,15.6631579 9.12388664,14.9732794 C9.18218623,14.8080972 9.24048583,14.6526316 9.30850202,14.4874494 C9.33765182,14.4097166 9.37651822,14.3319838 9.40566802,14.2445344 C9.30850202,14.497166 9.38623482,14.2834008 9.40566802,14.2348178 C9.5611336,13.8850202 9.72631579,13.5352227 9.90121457,13.1854251 C10.2412955,12.5149798 10.6105263,11.8736842 11.0186235,11.2518219 C11.2129555,10.9506073 11.4267206,10.6493927 11.6404858,10.3578947 C11.6890688,10.2898785 11.9708502,9.93036437 11.7959514,10.1441296 C11.9319838,9.97894737 12.0582996,9.81376518 12.194332,9.648583 C12.6607287,9.09473684 13.1465587,8.57004049 13.6712551,8.07449393 C13.9336032,7.82186235 14.1959514,7.57894737 14.4680162,7.34574899 C14.594332,7.2388664 14.7303644,7.12226721 14.8566802,7.01538462 C14.9149798,6.96680162 15.3425101,6.62672065 15.1093117,6.81133603 C16.2947368,5.90769231 17.5773279,5.13036437 18.9376518,4.50850202 C19.0931174,4.44048583 19.248583,4.36275304 19.4040486,4.30445344 C19.1417004,4.41133603 19.5692308,4.23643725 19.6566802,4.20728745 C20.0161943,4.06153846 20.3854251,3.93522267 20.7546559,3.81862348 C21.4834008,3.5854251 22.2218623,3.39109312 22.9700405,3.24534413 C23.3392713,3.16761134 23.708502,3.10931174 24.0777328,3.06072874 C23.7668016,3.10931174 24.2817814,3.04129555 24.3497976,3.03157895 C24.5732794,3.01214461 24.7967611,2.98299595 25.0202429,2.97327935 C25.7878543,2.91497976 26.5651822,2.90526316 27.3327935,2.93441296 C27.6923077,2.94412955 28.0518219,2.97327935 28.411336,3.00242915 C28.6153846,3.02186235 28.8097166,3.04129555 29.0137652,3.07044534 C29.2469636,3.09959514 28.7902834,3.04129555 29.0234818,3.07044534 C29.1303644,3.08987854 29.2469636,3.09959514 29.3538462,3.11902834 C30.1117409,3.24534413 30.859919,3.41052632 31.5983806,3.6145749 C32.3271255,3.81862348 33.0364372,4.07125506 33.745749,4.35303644 C33.4639676,4.23643725 33.9303644,4.43076923 33.988664,4.45991903 C34.1441296,4.52793522 34.2995951,4.60566802 34.4550607,4.67368421 C34.8048583,4.8388664 35.1449393,5.01376518 35.4753036,5.20809717 C36.1068826,5.55789474 36.7190283,5.9465587 37.3117409,6.36437247 C37.4672065,6.47125506 37.6226721,6.58785425 37.7781377,6.70445344 C37.8072874,6.72388664 38.0210526,6.88906883 37.8850202,6.78218623 C37.7489879,6.67530364 37.9530364,6.84048583 37.9919028,6.85991903 C38.2931174,7.10283401 38.5846154,7.34574899 38.8663968,7.59838057 C39.4202429,8.09392713 39.9449393,8.61862348 40.4307692,9.17246964 C40.654251,9.42510121 40.8777328,9.68744939 41.091498,9.94979757 C41.140081,10.0178138 41.1983806,10.08583 41.2469636,10.1441296 C41.0817814,9.93036437 41.2178138,10.1052632 41.2469636,10.1538462 C41.3732794,10.3287449 41.4995951,10.4939271 41.6259109,10.6688259 C42.0534413,11.2809717 42.4518219,11.9125506 42.811336,12.5635628 C42.9765182,12.8647773 43.1319838,13.1659919 43.2777328,13.4769231 C43.3651822,13.6518219 43.442915,13.8267206 43.5206478,14.0016194 C43.5595142,14.0793522 43.588664,14.157085 43.6275304,14.2348178 C43.734413,14.4874494 43.588664,14.1473684 43.6566802,14.302834 C44.2105263,15.7020243 44.6283401,17.1497976 44.8712551,18.6364372 C44.8809717,18.7044534 44.9489879,19.2194332 44.9101215,18.908502 C44.9392713,19.1125506 44.9587045,19.3068826 44.9781377,19.5109312 C45.017004,19.9093117 45.0461538,20.3174089 45.0558704,20.7255061 C45.0850202,21.5222672 45.065587,22.3093117 45.0072874,23.1060729 C44.9975709,23.2809717 44.9781377,23.465587 44.9587045,23.6404858 C44.9489879,23.7376518 44.8906883,24.2040486 44.9295547,23.9125506 C44.8712551,24.3109312 44.8032389,24.6995951 44.7255061,25.0882591 C44.5797571,25.817004 44.3854251,26.5360324 44.1619433,27.2356275 C44.0453441,27.5854251 43.9287449,27.9352227 43.7927126,28.2753036 C43.7732794,28.3336032 43.5497976,28.8680162 43.6761134,28.5862348 C43.5983806,28.7611336 43.5206478,28.9360324 43.442915,29.1109312 C43.1319838,29.7910931 42.7821862,30.4518219 42.3935223,31.0931174 C42.0145749,31.7149798 41.6161943,32.3076923 41.1692308,32.8809717 C41.3441296,32.6574899 41.0623482,33.017004 41.0040486,33.0850202 C40.897166,33.2210526 40.7902834,33.3473684 40.6736842,33.4736842 C40.4210526,33.7651822 40.1684211,34.0469636 39.9060729,34.3190283 C39.3910931,34.8534413 38.8469636,35.3587045 38.2834008,35.8348178 C38.1376518,35.9611336 37.9919028,36.0777328 37.8364372,36.194332 C38.0696356,36.0097166 37.6809717,36.3109312 37.6226721,36.3497976 C37.3117409,36.5732794 37.0008097,36.7967611 36.6801619,37.0008097 C36.0680162,37.3991903 35.4461538,37.7587045 34.7951417,38.0890688 C34.4744939,38.254251 34.1441296,38.4097166 33.8040486,38.5554656 C33.7651822,38.5748988 33.5222672,38.6720648 33.6777328,38.6040486 C33.842915,38.5360324 33.5902834,38.642915 33.551417,38.6526316 C33.3473684,38.7303644 33.1530364,38.8080972 32.9489879,38.88583 C32.2591093,39.1384615 31.5497976,39.3522267 30.8307692,39.5271255 C30.4712551,39.6145749 30.1020243,39.6923077 29.7327935,39.7603239 C29.5578947,39.7894737 29.382996,39.8186235 29.2080972,39.8477733 C29.1206478,39.8574899 29.0331984,39.8769231 28.945749,39.8866397 C29.2663968,39.8380567 28.8291498,39.8963563 28.8,39.9060729 C28.0421053,39.9935223 27.2744939,40.0323887 26.5068826,40.0323887 C25.7489879,40.0323887 25.0105263,40.702834 25.0493927,41.4898785 C25.0882591,42.2769231 25.6906883,42.9473684 26.5068826,42.9473684 C33.2307692,42.9279352 39.5562753,39.7408907 43.637247,34.4064777 C47.6793522,29.1206478 48.9813765,22.0178138 47.1740891,15.6242915 C45.3765182,9.24048583 40.6348178,4.05182186 34.5230769,1.55465587 C28.3724696,-0.971659919 21.11417,-0.349797571 15.4299595,3.08987854 C9.74574899,6.52955466 5.9951417,12.4566802 5.19838057,19.0445344 C5.10121457,19.8510121 5.05263158,20.6574899 5.05263158,21.4736842 C5.05263158,22.2315789 5.72307692,22.9700405 6.51012146,22.9311741 C7.30688259,22.8923077 7.96761134,22.2898785 7.96761134,21.4736842 L7.96761134,21.4736842 Z"></path><path d="M0.223481781,15.4785425 C1.67125506,17.4510121 3.10931174,19.4234818 4.55708502,21.3862348 C4.7708502,21.6777328 4.97489879,21.9595142 5.18866397,22.2510121 C5.76194332,23.0380567 6.72388664,23.2129555 7.48178138,22.5425101 C9.30850202,20.9198381 11.1449393,19.3068826 12.9716599,17.6842105 C13.2340081,17.4510121 13.5060729,17.2178138 13.7684211,16.9748988 C14.3611336,16.4502024 14.302834,15.4493927 13.7684211,14.9149798 C13.1854251,14.3319838 12.3012146,14.3902834 11.708502,14.9149798 C9.88178138,16.5376518 8.04534413,18.1506073 6.21862348,19.7732794 C5.9562753,20.0064777 5.68421053,20.2396761 5.42186235,20.4825911 C6.18947368,20.5797571 6.94736842,20.6769231 7.71497976,20.7740891 C6.26720648,18.8016194 4.8291498,16.8291498 3.38137652,14.8663968 C3.16761134,14.5748988 2.96356275,14.2931174 2.74979757,14.0016194 C2.28340081,13.3700405 1.48663968,13.0493927 0.757894737,13.4769231 C0.126315789,13.8461538 -0.24291498,14.837247 0.223481781,15.4785425 L0.223481781,15.4785425 Z"></path></g><path d="M25.0299433,10.2315789 C25.0299433,13.1368421 25.0299433,16.0323887 25.0299433,18.9376518 C25.0299433,19.5983806 25.0299433,20.2493927 25.0299433,20.9101215 C25.0299433,21.5125506 25.0202429,22.0080972 25.4769231,22.5133603 C26.3708502,23.51417 27.3910931,24.4275304 28.3433198,25.3797571 C29.3927126,26.4291498 30.4421053,27.4785425 31.491498,28.5279352 C32.0453441,29.0817814 32.9975709,29.0817814 33.551417,28.5279352 C34.1052632,27.9740891 34.1052632,27.0218623 33.551417,26.4680162 C31.8024291,24.7190283 30.0437247,22.9603239 28.2947368,21.211336 C28.0421053,20.9587045 27.7797571,20.6963563 27.5271255,20.4437247 C27.6728745,20.7838057 27.8089069,21.1336032 27.9546559,21.4736842 C27.9546559,18.1991903 27.9546559,14.9149798 27.9546559,11.6404858 C27.9546559,11.1740891 27.9546559,10.6979757 27.9546559,10.2315789 C27.9546559,9.47368421 27.2842105,8.73522267 26.497166,8.77408907 C25.7004049,8.81295547 25.0299433,9.41538462 25.0299433,10.2315789 L25.0299433,10.2315789 Z"></path></g></g></g></svg>
