<svg width="48px" height="48px" viewBox="0 0 48 48" xmlns="http://www.w3.org/2000/svg"><g stroke="none" stroke-width="1" fill="none" fill-rule="evenodd"><g><rect fill-opacity="0.01" fill="transparent" x="0" y="0" width="48" height="48"></rect><g fill="currentColor" fill-rule="nonzero"><path d="M25.12,48 C24.5866667,48 24.0533333,47.84 23.6266667,47.52 L10.0266667,37.28 L2.50666667,37.28 C1.12,37.28 0,36.1066667 0,34.6666667 L0,13.3333333 C0,11.8933333 1.12,10.72 2.50666667,10.72 L10.0266667,10.72 L23.6266667,0.533333333 C24.3733333,-0.0533333333 25.3866667,-0.106666667 26.1866667,0.266666667 C27.0933333,0.693333333 27.6266667,1.6 27.6266667,2.61333333 L27.6266667,45.3866667 C27.6266667,46.4 27.0933333,47.3066667 26.1866667,47.7333333 C25.8666667,47.8933333 25.4933333,48 25.12,48 Z M2.50666667,13.0133333 C2.34666667,13.0133333 2.24,13.1733333 2.24,13.3866667 L2.24,34.6666667 C2.24,34.88 2.34666667,35.04 2.50666667,35.04 L10.4,35.04 C10.6666667,35.04 10.88,35.0933333 11.0933333,35.2533333 L24.96,45.7066667 C25.0133333,45.76 25.0666667,45.76 25.1733333,45.7066667 C25.2266667,45.6533333 25.3333333,45.6 25.3333333,45.3866667 L25.3333333,2.61333333 C25.3333333,2.4 25.2266667,2.29333333 25.1733333,2.29333333 C25.0666667,2.24 25.0133333,2.29333333 24.96,2.29333333 L11.0933333,12.7466667 C10.88,12.9066667 10.6666667,12.96 10.4,12.96 L2.50666667,12.96 L2.50666667,13.0133333 Z"></path><path d="M34.1333333,31.52 C33.8666667,31.52 33.5466667,31.4133333 33.3333333,31.2 C32.9066667,30.7733333 32.9066667,30.0266667 33.3333333,29.6 L46.08,16.8533333 C46.5066667,16.4266667 47.2533333,16.4266667 47.68,16.8533333 C48.1066667,17.28 48.1066667,18.0266667 47.68,18.4533333 L34.9333333,31.1466667 C34.72,31.4133333 34.4,31.52 34.1333333,31.52 Z"></path><path d="M46.88,31.52 C46.6133333,31.52 46.2933333,31.4133333 46.08,31.2 L33.3333333,18.4 C32.9066667,17.9733333 32.9066667,17.2266667 33.3333333,16.8 C33.76,16.3733333 34.5066667,16.3733333 34.9333333,16.8 L47.68,29.5466667 C48.1066667,29.9733333 48.1066667,30.72 47.68,31.1466667 C47.4666667,31.4133333 47.1466667,31.52 46.88,31.52 Z"></path></g></g></g></svg>
