<svg width="48px" height="48px" viewBox="0 0 48 48" xmlns="http://www.w3.org/2000/svg"><g stroke="none" stroke-width="1" fill="none" fill-rule="evenodd"><g><rect fill-opacity="0.01" fill="transparent" x="0" y="0" width="48" height="48"></rect><g fill="currentColor" fill-rule="nonzero"><path d="M25.12,48 C24.5866667,48 24.0533333,47.84 23.6266667,47.52 L10.0266667,37.28 L2.50666667,37.28 C1.12,37.28 0,36.1066667 0,34.6666667 L0,13.3333333 C0,11.8933333 1.12,10.72 2.50666667,10.72 L10.0266667,10.72 L23.6266667,0.533333333 C24.3733333,-0.0533333333 25.3866667,-0.106666667 26.1866667,0.266666667 C27.0933333,0.693333333 27.6266667,1.6 27.6266667,2.61333333 L27.6266667,45.3866667 C27.6266667,46.4 27.0933333,47.3066667 26.1866667,47.7333333 C25.8666667,47.8933333 25.4933333,48 25.12,48 Z M2.50666667,13.0133333 C2.34666667,13.0133333 2.24,13.1733333 2.24,13.3866667 L2.24,34.6666667 C2.24,34.88 2.34666667,35.04 2.50666667,35.04 L10.4,35.04 C10.6666667,35.04 10.88,35.0933333 11.0933333,35.2533333 L24.96,45.7066667 C25.0133333,45.76 25.0666667,45.76 25.1733333,45.7066667 C25.2266667,45.6533333 25.3333333,45.6 25.3333333,45.3866667 L25.3333333,2.61333333 C25.3333333,2.4 25.2266667,2.29333333 25.1733333,2.29333333 C25.0666667,2.24 25.0133333,2.29333333 24.96,2.29333333 L11.0933333,12.7466667 C10.88,12.9066667 10.6666667,12.96 10.4,12.96 L2.50666667,12.96 L2.50666667,13.0133333 Z"></path><path d="M30.4,34.6666667 C29.8133333,34.6666667 29.28,34.1866667 29.28,33.5466667 C29.28,32.9066667 29.76,32.4266667 30.4,32.3733333 C34.9866667,32.2666667 38.6666667,28.48 38.6666667,23.9466667 C38.6666667,19.4133333 34.9333333,15.6266667 30.4,15.52 C29.76,15.52 29.28,14.9866667 29.28,14.3466667 C29.28,13.76 29.8133333,13.2266667 30.4,13.2266667 C30.4,13.2266667 30.4,13.2266667 30.4,13.2266667 C36.16,13.3333333 40.8533333,18.1333333 40.8533333,23.8933333 C40.8533333,29.6533333 36.16,34.56 30.4,34.6666667 C30.4,34.6666667 30.4,34.6666667 30.4,34.6666667 Z"></path><path d="M30.4,41.8666667 C29.76,41.8666667 29.28,41.3866667 29.28,40.7466667 C29.28,40.1066667 29.76,39.6266667 30.4,39.6266667 C38.8266667,39.4666667 45.76,32.48 45.76,24 C45.76,15.52 38.8266667,8.53333333 30.3466667,8.37333333 C29.7066667,8.37333333 29.2266667,7.84 29.2266667,7.25333333 C29.2266667,6.61333333 29.76,6.13333333 30.3466667,6.13333333 C30.3466667,6.13333333 30.3466667,6.13333333 30.3466667,6.13333333 C40.1066667,6.29333333 48,14.2933333 48,24 C48,33.7066667 40.1066667,41.7066667 30.4,41.8666667 C30.4,41.8666667 30.4,41.8666667 30.4,41.8666667 Z"></path></g></g></g></svg>
