<svg width="40px" height="48px" viewBox="0 0 40 48" xmlns="http://www.w3.org/2000/svg"><g stroke="none" stroke-width="1" fill="none" fill-rule="evenodd"><g fill="currentColor" fill-rule="nonzero"><g><path d="M13.85,41.8 C13.85,41.8 13.9,41.8 13.9,41.8 C14.6,41.75 15.1,41.2 15.05,40.5 L13.8,18.65 C13.75,17.95 13.2,17.45 12.5,17.5 C11.8,17.55 11.3,18.1 11.35,18.8 L12.6,40.65 C12.65,41.25 13.2,41.8 13.85,41.8 Z"></path><path d="M20,41.8 C20.7,41.8 21.25,41.25 21.25,40.55 L21.25,18.7 C21.25,18 20.7,17.45 20,17.45 C19.3,17.45 18.75,18 18.75,18.7 L18.75,40.55 C18.75,41.25 19.3,41.8 20,41.8 Z"></path><path d="M26.05,41.8 C26.05,41.8 26.1,41.8 26.1,41.8 C26.75,41.8 27.3,41.3 27.35,40.65 L28.6,18.8 C28.65,18.1 28.1,17.55 27.45,17.5 C26.75,17.45 26.2,18 26.15,18.65 L24.9,40.5 C24.85,41.15 25.4,41.75 26.05,41.8 Z"></path><path d="M36.6,5.95 L26.55,5.95 L25.85,2.75 C25.55,1.35 24.25,0.3 22.8,0.3 L17.2,0.25 L17.2,0.25 C15.75,0.25 14.5,1.25 14.15,2.65 L13.4,5.95 L3.4,5.95 C1.75,5.95 0.4,7.3 0.4,8.95 L0.4,11 C0.4,12.65 1.75,14 3.4,14 L3.85,14 L6,43.35 C6.2,45.8 8.25,47.75 10.7,47.75 L29.25,47.75 C31.7,47.75 33.8,45.8 33.95,43.35 L36.1,13.95 L36.55,13.95 C38.2,13.95 39.55,12.6 39.55,10.95 L39.55,8.9 C39.6,7.3 38.25,5.95 36.6,5.95 Z M16.55,3.2 C16.6,2.9 16.9,2.7 17.2,2.7 C17.2,2.7 17.2,2.7 17.2,2.7 L22.85,2.75 C23.15,2.75 23.4,2.95 23.5,3.25 L24.1,5.95 L15.95,5.95 L16.55,3.2 Z M31.55,43.2 C31.45,44.4 30.45,45.3 29.3,45.3 L10.75,45.3 C9.55,45.3 8.6,44.4 8.5,43.2 L6.35,14 L33.65,14 L31.55,43.2 Z M37.1,11 C37.1,11.3 36.85,11.5 36.6,11.5 L3.4,11.5 C3.1,11.5 2.9,11.25 2.9,11 L2.9,8.95 C2.9,8.65 3.15,8.45 3.4,8.45 L36.6,8.45 C36.9,8.45 37.1,8.7 37.1,8.95 L37.1,11 Z"></path></g></g></g></svg>
